<svg width="325" height="50" viewBox="0 0 325 50" fill="none" xmlns="http://www.w3.org/2000/svg">
<rect x="0.5" y="0.5" width="324" height="49" rx="24.5" stroke="#777777"/>
<path d="M21.4922 30V19.375H25.8281C26.4948 19.375 27.0938 19.5234 27.625 19.8203C28.1562 20.112 28.5703 20.5208 28.8672 21.0469C29.1641 21.5677 29.3125 22.1562 29.3125 22.8125C29.3125 23.4844 29.1641 24.0859 28.8672 24.6172C28.5703 25.1432 28.1589 25.5547 27.6328 25.8516C27.112 26.1484 26.5182 26.2969 25.8516 26.2969H22.7188V30H21.4922ZM25.8047 25.1875C26.2318 25.1875 26.6198 25.0833 26.9688 24.875C27.3177 24.6667 27.5911 24.3828 27.7891 24.0234C27.987 23.6641 28.0859 23.263 28.0859 22.8203C28.0859 22.3984 27.9844 22.0104 27.7812 21.6562C27.5781 21.2969 27.2995 21.013 26.9453 20.8047C26.5964 20.5911 26.2083 20.4844 25.7812 20.4844H22.7188V25.1875H25.8047ZM32.1953 30H30.9922V18.9844H32.1953V30ZM42.1016 25.8203C42.1016 25.888 42.0938 26.0521 42.0781 26.3125H35.375C35.4219 26.8698 35.5781 27.3594 35.8438 27.7812C36.1146 28.2031 36.4531 28.5286 36.8594 28.7578C37.2656 28.987 37.7005 29.1016 38.1641 29.1016C38.7214 29.1016 39.2031 28.9766 39.6094 28.7266C40.0208 28.4766 40.3203 28.1146 40.5078 27.6406H41.8359C41.6797 28.1302 41.4245 28.5703 41.0703 28.9609C40.7161 29.3516 40.2891 29.6589 39.7891 29.8828C39.2943 30.1068 38.7604 30.2188 38.1875 30.2188C37.4479 30.2188 36.7708 30.0312 36.1562 29.6562C35.5417 29.2812 35.0573 28.7734 34.7031 28.1328C34.349 27.4922 34.1719 26.7891 34.1719 26.0234C34.1719 25.2578 34.349 24.5547 34.7031 23.9141C35.0573 23.2734 35.5417 22.7656 36.1562 22.3906C36.7708 22.0156 37.4479 21.8281 38.1875 21.8281C38.9219 21.8281 39.5885 22.013 40.1875 22.3828C40.7865 22.7474 41.2552 23.237 41.5938 23.8516C41.9323 24.4609 42.1016 25.1172 42.1016 25.8203ZM40.8828 25.25C40.8568 24.8438 40.7188 24.4661 40.4688 24.1172C40.2188 23.763 39.8906 23.4818 39.4844 23.2734C39.0781 23.0599 38.6406 22.9531 38.1719 22.9531C37.7396 22.9531 37.3307 23.0443 36.9453 23.2266C36.5651 23.4089 36.2396 23.6745 35.9688 24.0234C35.7031 24.3672 35.5234 24.776 35.4297 25.25H40.8828ZM47.1172 30.2188C46.4036 30.2188 45.75 30.0339 45.1562 29.6641C44.5677 29.2891 44.1016 28.7812 43.7578 28.1406C43.4193 27.4948 43.25 26.7891 43.25 26.0234C43.25 25.2578 43.4193 24.5547 43.7578 23.9141C44.1016 23.2734 44.5677 22.7682 45.1562 22.3984C45.75 22.0234 46.401 21.8359 47.1094 21.8359C47.8385 21.8359 48.4922 22.0182 49.0703 22.3828C49.6484 22.7422 50.0755 23.2318 50.3516 23.8516V22.0469H51.4922V30H50.3516V28.2109C50.0755 28.8307 49.6484 29.3203 49.0703 29.6797C48.4974 30.0391 47.8464 30.2188 47.1172 30.2188ZM47.375 29.0938C47.9115 29.0938 48.4036 28.9609 48.8516 28.6953C49.3047 28.4245 49.6615 28.0547 49.9219 27.5859C50.1823 27.1172 50.3125 26.5964 50.3125 26.0234C50.3125 25.4609 50.1797 24.9453 49.9141 24.4766C49.6536 24.0078 49.2995 23.638 48.8516 23.3672C48.4036 23.0911 47.9115 22.9531 47.375 22.9531C46.8385 22.9531 46.3464 23.0859 45.8984 23.3516C45.4505 23.6172 45.0938 23.9844 44.8281 24.4531C44.5677 24.9167 44.4375 25.4401 44.4375 26.0234C44.4375 26.6172 44.5677 27.1484 44.8281 27.6172C45.0938 28.0807 45.4505 28.4427 45.8984 28.7031C46.3516 28.9635 46.8438 29.0938 47.375 29.0938ZM56.7812 30.2188C56.0781 30.2188 55.4792 30.0964 54.9844 29.8516C54.4896 29.6068 54.1146 29.2839 53.8594 28.8828C53.6094 28.4818 53.4844 28.0495 53.4844 27.5859H54.6328C54.638 27.8932 54.7266 28.1745 54.8984 28.4297C55.0703 28.6797 55.3177 28.8776 55.6406 29.0234C55.9635 29.1693 56.3464 29.2422 56.7891 29.2422C57.4141 29.2422 57.8932 29.1198 58.2266 28.875C58.5599 28.625 58.7266 28.2812 58.7266 27.8438C58.7266 27.5417 58.6458 27.3021 58.4844 27.125C58.3229 26.9427 58.0964 26.8021 57.8047 26.7031C57.513 26.6042 57.125 26.5156 56.6406 26.4375C55.7812 26.3125 55.1042 26.0781 54.6094 25.7344C54.1146 25.3906 53.8672 24.8542 53.8672 24.125C53.8672 23.6927 53.9714 23.3047 54.1797 22.9609C54.3932 22.612 54.7109 22.3359 55.1328 22.1328C55.5547 21.9297 56.0677 21.8281 56.6719 21.8281C57.2708 21.8281 57.7969 21.9297 58.25 22.1328C58.7083 22.3307 59.0625 22.6068 59.3125 22.9609C59.5625 23.3151 59.6875 23.7188 59.6875 24.1719L58.5078 24.1641C58.487 23.763 58.3125 23.4427 57.9844 23.2031C57.6562 22.9583 57.2188 22.8359 56.6719 22.8359C56.1458 22.8359 55.7422 22.9557 55.4609 23.1953C55.1849 23.4349 55.0469 23.737 55.0469 24.1016C55.0469 24.3724 55.1068 24.5911 55.2266 24.7578C55.3464 24.9245 55.5469 25.0625 55.8281 25.1719C56.1094 25.276 56.5078 25.3724 57.0234 25.4609C57.612 25.5547 58.1094 25.6745 58.5156 25.8203C58.9219 25.9609 59.2604 26.1901 59.5312 26.5078C59.8021 26.8203 59.9375 27.2474 59.9375 27.7891C59.9375 28.3099 59.8073 28.7526 59.5469 29.1172C59.2865 29.4818 58.9193 29.7578 58.4453 29.9453C57.9714 30.1276 57.4167 30.2188 56.7812 30.2188ZM69.0859 25.8203C69.0859 25.888 69.0781 26.0521 69.0625 26.3125H62.3594C62.4062 26.8698 62.5625 27.3594 62.8281 27.7812C63.099 28.2031 63.4375 28.5286 63.8438 28.7578C64.25 28.987 64.6849 29.1016 65.1484 29.1016C65.7057 29.1016 66.1875 28.9766 66.5938 28.7266C67.0052 28.4766 67.3047 28.1146 67.4922 27.6406H68.8203C68.6641 28.1302 68.4089 28.5703 68.0547 28.9609C67.7005 29.3516 67.2734 29.6589 66.7734 29.8828C66.2786 30.1068 65.7448 30.2188 65.1719 30.2188C64.4323 30.2188 63.7552 30.0312 63.1406 29.6562C62.526 29.2812 62.0417 28.7734 61.6875 28.1328C61.3333 27.4922 61.1562 26.7891 61.1562 26.0234C61.1562 25.2578 61.3333 24.5547 61.6875 23.9141C62.0417 23.2734 62.526 22.7656 63.1406 22.3906C63.7552 22.0156 64.4323 21.8281 65.1719 21.8281C65.9062 21.8281 66.5729 22.013 67.1719 22.3828C67.7708 22.7474 68.2396 23.237 68.5781 23.8516C68.9167 24.4609 69.0859 25.1172 69.0859 25.8203ZM67.8672 25.25C67.8411 24.8438 67.7031 24.4661 67.4531 24.1172C67.2031 23.763 66.875 23.4818 66.4688 23.2734C66.0625 23.0599 65.625 22.9531 65.1562 22.9531C64.724 22.9531 64.3151 23.0443 63.9297 23.2266C63.5495 23.4089 63.224 23.6745 62.9531 24.0234C62.6875 24.3672 62.5078 24.776 62.4141 25.25H67.8672ZM77.9219 30C77.1927 30 76.599 29.7891 76.1406 29.3672C75.6823 28.9453 75.4531 28.1823 75.4531 27.0781V23.1016H73.6484V22.0469H75.4531V19.6719L76.6484 19.6641V22.0469H79.3438V23.1016H76.6484V27.1328C76.6484 27.8464 76.7865 28.3333 77.0625 28.5938C77.3385 28.849 77.7005 28.9766 78.1484 28.9766H79.3438V30H77.9219ZM80 32.7188V31.7031H81.3203C81.638 31.7031 81.8984 31.6432 82.1016 31.5234C82.3047 31.4036 82.474 31.2266 82.6094 30.9922C82.75 30.763 82.9036 30.4375 83.0703 30.0156L83.1406 29.8047L79.9609 22.0547H81.2266L83.5938 27.8984L83.7734 28.5625L83.9766 27.9062L86.3203 22.0547L87.5938 22.0469L84.4453 29.7734C84.1224 30.5651 83.8333 31.1615 83.5781 31.5625C83.3229 31.9688 83.0208 32.263 82.6719 32.4453C82.3229 32.6276 81.8646 32.7188 81.2969 32.7188H80ZM89.0391 32.7188V22.0469H90.1875V23.8516C90.375 23.4661 90.625 23.1224 90.9375 22.8203C91.25 22.513 91.612 22.2734 92.0234 22.1016C92.4349 21.9245 92.875 21.8359 93.3438 21.8359C94.0781 21.8359 94.7448 22.0234 95.3438 22.3984C95.9479 22.7682 96.4219 23.2734 96.7656 23.9141C97.1094 24.5547 97.2812 25.2578 97.2812 26.0234C97.2812 26.7943 97.1094 27.5 96.7656 28.1406C96.4219 28.7812 95.9505 29.2891 95.3516 29.6641C94.7526 30.0339 94.0885 30.2188 93.3594 30.2188C92.6823 30.2188 92.0599 30.0417 91.4922 29.6875C90.9245 29.3281 90.5 28.8464 90.2188 28.2422L90.2422 29.125V32.7188H89.0391ZM93.1641 29.1016C93.6953 29.1016 94.1849 28.9714 94.6328 28.7109C95.0807 28.4505 95.4349 28.0859 95.6953 27.6172C95.9609 27.1484 96.0938 26.6172 96.0938 26.0234C96.0938 25.4401 95.9609 24.9167 95.6953 24.4531C95.4349 23.9844 95.0807 23.6172 94.6328 23.3516C94.1849 23.0859 93.6927 22.9531 93.1562 22.9531C92.625 22.9531 92.1354 23.0911 91.6875 23.3672C91.2396 23.638 90.8828 24.0078 90.6172 24.4766C90.3568 24.9453 90.2266 25.4609 90.2266 26.0234C90.2266 26.6016 90.3568 27.125 90.6172 27.5938C90.8828 28.0625 91.2396 28.4323 91.6875 28.7031C92.1406 28.9688 92.6328 29.1016 93.1641 29.1016ZM106.508 25.8203C106.508 25.888 106.5 26.0521 106.484 26.3125H99.7812C99.8281 26.8698 99.9844 27.3594 100.25 27.7812C100.521 28.2031 100.859 28.5286 101.266 28.7578C101.672 28.987 102.107 29.1016 102.57 29.1016C103.128 29.1016 103.609 28.9766 104.016 28.7266C104.427 28.4766 104.727 28.1146 104.914 27.6406H106.242C106.086 28.1302 105.831 28.5703 105.477 28.9609C105.122 29.3516 104.695 29.6589 104.195 29.8828C103.701 30.1068 103.167 30.2188 102.594 30.2188C101.854 30.2188 101.177 30.0312 100.562 29.6562C99.9479 29.2812 99.4635 28.7734 99.1094 28.1328C98.7552 27.4922 98.5781 26.7891 98.5781 26.0234C98.5781 25.2578 98.7552 24.5547 99.1094 23.9141C99.4635 23.2734 99.9479 22.7656 100.562 22.3906C101.177 22.0156 101.854 21.8281 102.594 21.8281C103.328 21.8281 103.995 22.013 104.594 22.3828C105.193 22.7474 105.661 23.237 106 23.8516C106.339 24.4609 106.508 25.1172 106.508 25.8203ZM105.289 25.25C105.263 24.8438 105.125 24.4661 104.875 24.1172C104.625 23.763 104.297 23.4818 103.891 23.2734C103.484 23.0599 103.047 22.9531 102.578 22.9531C102.146 22.9531 101.737 23.0443 101.352 23.2266C100.971 23.4089 100.646 23.6745 100.375 24.0234C100.109 24.3672 99.9297 24.776 99.8359 25.25H105.289ZM112.914 20.4062C112.669 20.4062 112.469 20.3307 112.312 20.1797C112.161 20.0286 112.086 19.8385 112.086 19.6094C112.086 19.3854 112.161 19.1979 112.312 19.0469C112.469 18.8958 112.672 18.8203 112.922 18.8203C113.172 18.8203 113.375 18.8984 113.531 19.0547C113.688 19.2057 113.766 19.3906 113.766 19.6094C113.766 19.8385 113.688 20.0286 113.531 20.1797C113.375 20.3307 113.169 20.4062 112.914 20.4062ZM112.32 30V22.0469H113.523V30H112.32ZM116.195 30V22.0469H117.344V23.6719C117.495 23.3125 117.719 22.9948 118.016 22.7188C118.312 22.4375 118.659 22.2188 119.055 22.0625C119.456 21.9062 119.883 21.8281 120.336 21.8281C121.393 21.8281 122.195 22.1536 122.742 22.8047C123.294 23.4505 123.57 24.4115 123.57 25.6875V30H122.375V25.7031C122.375 24.7708 122.172 24.0781 121.766 23.625C121.365 23.1719 120.789 22.9453 120.039 22.9453C119.576 22.9453 119.141 23.0625 118.734 23.2969C118.333 23.5312 118.01 23.8646 117.766 24.2969C117.521 24.7292 117.398 25.224 117.398 25.7812V30H116.195ZM126.797 30.1562C126.562 30.1562 126.367 30.0807 126.211 29.9297C126.06 29.7786 125.984 29.5938 125.984 29.375C125.984 29.1615 126.06 28.9792 126.211 28.8281C126.367 28.6719 126.565 28.5938 126.805 28.5938C127.039 28.5938 127.234 28.6719 127.391 28.8281C127.547 28.9792 127.625 29.1615 127.625 29.375C127.625 29.5938 127.547 29.7786 127.391 29.9297C127.234 30.0807 127.036 30.1562 126.797 30.1562ZM130.781 30.1562C130.547 30.1562 130.352 30.0807 130.195 29.9297C130.044 29.7786 129.969 29.5938 129.969 29.375C129.969 29.1615 130.044 28.9792 130.195 28.8281C130.352 28.6719 130.549 28.5938 130.789 28.5938C131.023 28.5938 131.219 28.6719 131.375 28.8281C131.531 28.9792 131.609 29.1615 131.609 29.375C131.609 29.5938 131.531 29.7786 131.375 29.9297C131.219 30.0807 131.021 30.1562 130.781 30.1562ZM134.766 30.1562C134.531 30.1562 134.336 30.0807 134.18 29.9297C134.029 29.7786 133.953 29.5938 133.953 29.375C133.953 29.1615 134.029 28.9792 134.18 28.8281C134.336 28.6719 134.534 28.5938 134.773 28.5938C135.008 28.5938 135.203 28.6719 135.359 28.8281C135.516 28.9792 135.594 29.1615 135.594 29.375C135.594 29.5938 135.516 29.7786 135.359 29.9297C135.203 30.0807 135.005 30.1562 134.766 30.1562Z" fill="#ACA99F"/>
</svg>
