<svg width="21" height="20" viewBox="0 0 21 20" fill="none" xmlns="http://www.w3.org/2000/svg">
<path d="M14.56 9.15196H13.66V7.43767C13.66 6.75568 13.3755 6.10163 12.8691 5.6194C12.3628 5.13716 11.676 4.86624 10.96 4.86624C10.2439 4.86624 9.55712 5.13716 9.05077 5.6194C8.54442 6.10163 8.25996 6.75568 8.25996 7.43767V9.15196H7.35996C7.12127 9.15196 6.89235 9.24226 6.72356 9.40301C6.55478 9.56375 6.45996 9.78177 6.45996 10.0091V14.2948C6.45996 14.5221 6.55478 14.7402 6.72356 14.9009C6.89235 15.0616 7.12127 15.152 7.35996 15.152H14.56C14.7987 15.152 15.0276 15.0616 15.1964 14.9009C15.3651 14.7402 15.46 14.5221 15.46 14.2948V10.0091C15.46 9.78177 15.3651 9.56375 15.1964 9.40301C15.0276 9.24226 14.7987 9.15196 14.56 9.15196ZM11.86 9.15196H10.06V7.43767C10.06 7.21034 10.1548 6.99232 10.3236 6.83158C10.4923 6.67083 10.7213 6.58053 10.96 6.58053C11.1987 6.58053 11.4276 6.67083 11.5964 6.83158C11.7651 6.99232 11.86 7.21034 11.86 7.43767V9.15196Z" fill="#121212"/>
</svg>
