<svg width="636" height="120" viewBox="0 0 636 120" fill="none" xmlns="http://www.w3.org/2000/svg">
<path d="M139.142 44.3924H153.995L165.279 74.6501H165.471L175.916 44.3924H189.763L172.155 88.9524H157.589L139.142 44.3924Z" fill="#121212"/>
<path d="M230.538 81.2383C228.334 84.0413 225.555 86.2214 222.201 87.7546C218.847 89.2879 215.349 90.0545 211.756 90.0545C208.33 90.0545 205.12 89.5035 202.077 88.4015C199.059 87.2995 196.423 85.7183 194.195 83.6819C191.967 81.6456 190.219 79.178 188.925 76.3032C187.631 73.4283 187.008 70.2181 187.008 66.6725C187.008 63.1268 187.655 59.9166 188.925 57.0418C190.219 54.1669 191.967 51.6993 194.195 49.663C196.423 47.6267 199.059 46.0455 202.077 44.9435C205.096 43.8414 208.33 43.2904 211.756 43.2904C214.942 43.2904 217.817 43.8414 220.428 44.9435C223.016 46.0455 225.22 47.6267 227.04 49.663C228.837 51.7233 230.227 54.1669 231.209 57.0418C232.191 59.9166 232.67 63.1268 232.67 66.6725V70.9847H200.736C201.287 73.62 202.485 75.7043 204.305 77.2615C206.15 78.8187 208.402 79.6092 211.085 79.6092C213.337 79.6092 215.254 79.1062 216.811 78.1C218.368 77.0938 219.734 75.8001 220.883 74.195L230.538 81.2383ZM218.895 61.6175C218.967 59.2937 218.2 57.3053 216.595 55.6522C215.014 53.9992 212.954 53.1847 210.462 53.1847C208.929 53.1847 207.587 53.4242 206.437 53.9273C205.287 54.4065 204.281 55.0533 203.467 55.796C202.652 56.5626 202.005 57.449 201.55 58.4552C201.095 59.4614 200.831 60.5155 200.76 61.6175H218.895Z" fill="#121212"/>
<path d="M236.407 44.3925H250.159V51.5316H250.35C251.812 48.7766 253.56 46.7163 255.573 45.3507C257.585 43.9852 260.125 43.2904 263.191 43.2904C263.982 43.2904 264.772 43.3144 265.563 43.3863C266.353 43.4581 267.096 43.5779 267.767 43.7456V56.2991C266.785 55.9876 265.826 55.772 264.868 55.6043C263.91 55.4606 262.928 55.3648 261.897 55.3648C259.262 55.3648 257.202 55.7241 255.669 56.4668C254.135 57.2095 252.962 58.2156 252.147 59.5333C251.332 60.8509 250.781 62.4321 250.542 64.2528C250.302 66.0975 250.182 68.1099 250.182 70.3139V88.9285H236.431V44.3925H236.407Z" fill="#121212"/>
<path d="M270.043 30.3537C270.043 28.1496 270.834 26.281 272.391 24.7238C273.948 23.1666 275.817 22.376 278.021 22.376C280.225 22.376 282.093 23.1666 283.651 24.7238C285.208 26.281 285.998 28.1496 285.998 30.3537C285.998 32.5577 285.208 34.4263 283.651 35.9836C282.093 37.5408 280.225 38.3313 278.021 38.3313C275.817 38.3313 273.948 37.5408 272.391 35.9836C270.834 34.4503 270.043 32.5577 270.043 30.3537ZM271.145 44.3925H284.896V88.9525H271.145V44.3925Z" fill="#121212"/>
<path d="M297.737 55.3887H288.658V44.3924H297.737V36.5106C297.737 34.067 297.953 31.7671 298.384 29.587C298.815 27.4069 299.63 25.5143 300.852 23.8613C302.074 22.2083 303.822 20.9146 306.122 19.9563C308.422 18.998 311.417 18.5428 315.154 18.5428C316.568 18.5428 317.933 18.6147 319.275 18.7345C320.616 18.8543 321.934 19.0699 323.228 19.3813L322.581 31.0244C321.79 30.713 321.048 30.4974 320.377 30.3297C319.706 30.1859 318.939 30.0901 318.077 30.0901C315.873 30.0901 314.22 30.5693 313.118 31.5036C312.016 32.4619 311.465 34.4024 311.465 37.3251V44.3924H321.646V55.3887H311.465V88.9285H297.713V55.3887H297.737Z" fill="#121212"/>
<path d="M347.041 96.1875C346.131 98.5592 345.244 100.667 344.382 102.512C343.519 104.357 342.441 105.89 341.124 107.136C339.806 108.382 338.153 109.34 336.117 109.987C334.104 110.634 331.445 110.945 328.139 110.945C324.593 110.945 321.167 110.394 317.861 109.292L319.706 98.0082C321.79 98.9186 323.922 99.3737 326.126 99.3737C327.66 99.3737 328.905 99.206 329.888 98.8706C330.87 98.5352 331.685 98.0561 332.307 97.4093C332.954 96.7624 333.481 95.9958 333.913 95.0615C334.344 94.1511 334.799 93.0731 335.278 91.8512L336.284 89.2879L316.759 44.3685H331.613L343.064 73.7877H343.256L353.054 44.3685H367.165L347.041 96.1875Z" fill="#121212"/>
<path d="M369.608 44.3925H382.809V50.4536H383C383.432 49.5911 384.031 48.7526 384.845 47.8902C385.636 47.0277 386.594 46.2611 387.696 45.5903C388.798 44.9195 390.044 44.3685 391.457 43.9373C392.871 43.506 394.38 43.2904 396.033 43.2904C399.147 43.2904 401.902 43.9373 404.322 45.207C406.742 46.5007 408.563 48.5131 409.784 51.2681C411.365 48.3933 413.306 46.3569 415.558 45.1351C417.81 43.9133 420.589 43.2904 423.895 43.2904C426.89 43.2904 429.405 43.7935 431.465 44.7997C433.502 45.8059 435.131 47.1715 436.329 48.9203C437.527 50.6692 438.365 52.7055 438.892 55.0533C439.419 57.4011 439.683 59.9166 439.683 62.6237V88.9285H425.931V63.0071C425.931 60.9228 425.476 59.15 424.614 57.6407C423.727 56.1553 422.146 55.3887 419.894 55.3887C418.313 55.3887 416.971 55.6523 415.917 56.1793C414.839 56.7064 414.001 57.4251 413.354 58.3354C412.707 59.2458 412.252 60.3239 411.988 61.5457C411.725 62.7675 411.581 64.0612 411.581 65.4028V88.9525H397.83V65.4028C397.83 64.6122 397.806 63.6299 397.734 62.48C397.662 61.3301 397.47 60.228 397.087 59.1739C396.728 58.1438 396.129 57.2574 395.29 56.5147C394.476 55.772 393.254 55.4127 391.673 55.4127C389.9 55.4127 388.463 55.7241 387.361 56.371C386.259 57.0178 385.42 57.8803 384.845 58.9344C384.27 60.0124 383.887 61.2103 383.695 62.5519C383.503 63.8935 383.432 65.3069 383.432 66.7683V88.9525H369.68V44.3925H369.608Z" fill="#121212"/>
<path d="M472.265 96.1875C471.354 98.5592 470.468 100.667 469.605 102.512C468.743 104.357 467.665 105.89 466.347 107.136C465.03 108.382 463.377 109.34 461.34 109.987C459.328 110.634 456.669 110.945 453.363 110.945C449.817 110.945 446.391 110.394 443.085 109.292L444.93 98.0082C447.014 98.9186 449.146 99.3737 451.35 99.3737C452.883 99.3737 454.129 99.206 455.111 98.8706C456.094 98.5352 456.908 98.0561 457.531 97.4093C458.178 96.7624 458.705 95.9958 459.136 95.0615C459.567 94.1511 460.023 93.0731 460.502 91.8512L461.508 89.2879L441.983 44.3685H456.836L468.288 73.7877H468.479L478.278 44.3685H492.389L472.265 96.1875Z" fill="#121212"/>
<path d="M520.944 83.3465H520.753C519.22 85.7182 517.183 87.4431 514.668 88.4733C512.128 89.5034 509.445 90.0305 506.642 90.0305C504.558 90.0305 502.57 89.743 500.629 89.1681C498.712 88.5931 497.012 87.7067 495.55 86.5567C494.089 85.4068 492.915 83.9694 492.076 82.2445C491.214 80.5435 490.783 78.5551 490.783 76.2792C490.783 73.7158 491.262 71.5357 492.196 69.7629C493.154 67.9901 494.424 66.5287 496.053 65.3548C497.682 64.2049 499.527 63.2945 501.611 62.6477C503.696 62.0008 505.852 61.5217 508.08 61.2342C510.308 60.9228 512.536 60.7551 514.764 60.6832C516.992 60.6113 519.052 60.5874 520.944 60.5874C520.944 58.1437 520.082 56.2032 518.333 54.7658C516.584 53.3284 514.524 52.6097 512.152 52.6097C509.9 52.6097 507.84 53.0888 505.971 54.0231C504.103 54.9814 502.45 56.2751 500.964 57.9281L493.634 50.4056C496.197 48.0339 499.192 46.2371 502.617 45.0393C506.043 43.8414 509.589 43.2425 513.254 43.2425C517.279 43.2425 520.609 43.7456 523.196 44.7518C525.784 45.758 527.868 47.2433 529.425 49.2078C530.982 51.1723 532.061 53.568 532.683 56.3949C533.282 59.2458 533.594 62.5279 533.594 66.2412V88.8806H520.944V83.3465ZM517.543 69.4275C516.512 69.4275 515.195 69.4754 513.638 69.5712C512.08 69.6671 510.571 69.9306 509.134 70.3618C507.696 70.793 506.475 71.4399 505.468 72.2784C504.462 73.1408 503.959 74.3387 503.959 75.848C503.959 77.501 504.654 78.7228 506.067 79.5134C507.481 80.304 508.942 80.7112 510.475 80.7112C511.817 80.7112 513.111 80.5196 514.38 80.1602C515.626 79.8009 516.752 79.2738 517.734 78.603C518.716 77.9322 519.483 77.0698 520.082 76.0396C520.657 75.0095 520.944 73.7877 520.944 72.3742V69.4514H517.543V69.4275Z" fill="#121212"/>
<path d="M585.293 85.1912C585.293 93.6241 583.161 100.021 578.92 104.405C574.68 108.765 568.212 110.969 559.539 110.969C555.562 110.969 551.657 110.514 547.8 109.651C543.943 108.765 540.398 107.04 537.164 104.477L544.782 93.121C546.914 94.8938 549.166 96.3073 551.514 97.3374C553.861 98.3676 556.449 98.8946 559.252 98.8946C563.468 98.8946 566.559 97.8645 568.547 95.8281C570.536 93.7918 571.518 91.1565 571.518 87.9942V83.6819H571.326C569.745 85.8141 567.756 87.3234 565.409 88.2098C563.061 89.0962 560.833 89.5274 558.773 89.5274C555.467 89.5274 552.472 88.9525 549.789 87.8265C547.106 86.7005 544.782 85.1193 542.865 83.059C540.949 81.0227 539.463 78.5791 538.409 75.7761C537.379 72.9731 536.852 69.8827 536.852 66.5287C536.852 63.606 537.331 60.7311 538.266 57.9042C539.224 55.1012 540.565 52.6097 542.29 50.4775C544.039 48.3454 546.147 46.6205 548.663 45.3028C551.178 43.9852 554.005 43.3383 557.191 43.3383C559.156 43.3383 560.929 43.554 562.558 43.9852C564.187 44.4164 565.624 44.9674 566.918 45.6382C568.212 46.309 569.29 47.0517 570.224 47.8902C571.134 48.7047 571.877 49.5193 572.428 50.3098H572.62V44.4404H585.269V85.1912H585.293ZM550.651 66.385C550.651 67.8463 550.915 69.2359 551.466 70.5535C552.017 71.8711 552.783 73.0211 553.814 74.0273C554.844 75.0334 555.994 75.848 557.287 76.4469C558.605 77.0698 560.042 77.3573 561.647 77.3573C563.181 77.3573 564.618 77.0458 565.96 76.4469C567.301 75.848 568.475 75.0334 569.481 74.0273C570.488 73.0211 571.278 71.8472 571.829 70.5535C572.38 69.2359 572.644 67.8463 572.644 66.385C572.644 64.9236 572.38 63.5341 571.829 62.2165C571.278 60.8988 570.512 59.7489 569.481 58.7427C568.475 57.7365 567.301 56.922 565.96 56.323C564.618 55.7241 563.181 55.4127 561.647 55.4127C560.066 55.4127 558.605 55.7241 557.287 56.323C555.97 56.9459 554.82 57.7365 553.814 58.7427C552.807 59.7489 552.017 60.9228 551.466 62.2165C550.915 63.5341 550.651 64.9236 550.651 66.385Z" fill="#121212"/>
<path d="M632.967 81.2383C630.763 84.0413 627.984 86.2214 624.63 87.7546C621.276 89.2879 617.779 90.0545 614.185 90.0545C610.759 90.0545 607.549 89.5035 604.507 88.4015C601.488 87.2995 598.853 85.7183 596.625 83.6819C594.397 81.6456 592.648 79.178 591.354 76.3032C590.06 73.4283 589.438 70.2181 589.438 66.6725C589.438 63.1268 590.084 59.9166 591.354 57.0418C592.648 54.1669 594.397 51.6993 596.625 49.663C598.853 47.6267 601.488 46.0455 604.507 44.9435C607.525 43.8414 610.759 43.2904 614.185 43.2904C617.371 43.2904 620.246 43.8414 622.858 44.9435C625.445 46.0455 627.649 47.6267 629.47 49.663C631.267 51.7233 632.656 54.1669 633.638 57.0418C634.62 59.9166 635.1 63.1268 635.1 66.6725V70.9847H603.189C603.74 73.62 604.938 75.7043 606.758 77.2615C608.603 78.8187 610.855 79.6092 613.538 79.6092C615.79 79.6092 617.707 79.1062 619.264 78.1C620.821 77.0938 622.187 75.8001 623.337 74.195L632.967 81.2383ZM621.324 61.6175C621.396 59.2937 620.63 57.3053 619.025 55.6522C617.443 53.9992 615.383 53.1847 612.891 53.1847C611.358 53.1847 610.017 53.4242 608.867 53.9273C607.717 54.4065 606.711 55.0533 605.896 55.796C605.081 56.5626 604.435 57.449 603.979 58.4552C603.524 59.4614 603.261 60.5155 603.189 61.6175H621.324Z" fill="#121212"/>
<path d="M58.2394 0C26.0652 0 0 26.0892 0 58.2634C0 90.4377 26.0892 116.503 58.2634 116.503C90.4376 116.503 116.503 90.4137 116.503 58.2395C116.503 26.0892 90.4376 0 58.2394 0ZM44.6319 97.9362C30.2337 97.9362 18.5427 86.2452 18.5427 71.847C18.5427 57.4489 30.2337 45.7579 44.6319 45.7579C59.03 45.7579 70.721 57.4489 70.721 71.847C70.745 86.2452 59.054 97.9362 44.6319 97.9362C44.6558 97.9362 44.6319 97.9362 44.6319 97.9362Z" fill="url(#paint0_linear_3_337)"/>
<path d="M53.7833 23.6935C32.2459 23.6935 14.7573 41.1581 14.7573 62.7194C14.7573 73.0209 18.83 82.8912 26.089 90.222C16.0031 80.0403 16.051 63.6058 26.2327 53.5199C36.4144 43.434 52.8489 43.482 62.9348 53.6637C73.0207 63.8454 72.9728 80.2799 62.7911 90.3658C52.6812 100.404 36.3665 100.404 26.2327 90.3658C41.4933 105.578 66.193 105.531 81.4057 90.27C96.6184 75.0094 96.5704 50.3097 81.3098 35.097C74.003 27.7901 64.1087 23.6935 53.7833 23.6935Z" fill="url(#paint1_linear_3_337)"/>
<defs>
<linearGradient id="paint0_linear_3_337" x1="23.4826" y1="23.5428" x2="97.9423" y2="97.9854" gradientUnits="userSpaceOnUse">
<stop stop-color="#FCEE21"/>
<stop offset="1" stop-color="#F9AC19"/>
</linearGradient>
<linearGradient id="paint1_linear_3_337" x1="77.2368" y1="86.0177" x2="27.5308" y2="36.3115" gradientUnits="userSpaceOnUse">
<stop stop-color="#FCEE21"/>
<stop offset="1" stop-color="#F9AC19"/>
</linearGradient>
</defs>
</svg>
