<svg width="325" height="33" viewBox="0 0 325 33" fill="none" xmlns="http://www.w3.org/2000/svg">
<g opacity="0.3">
<path d="M183.858 19.883H186.192L187.965 24.4282H187.995L189.636 19.883H191.812L189.045 26.5766H186.757L183.858 19.883Z" fill="#121212"/>
<path d="M198.22 25.4179C197.874 25.8389 197.437 26.1664 196.91 26.3967C196.383 26.627 195.834 26.7422 195.269 26.7422C194.731 26.7422 194.226 26.6594 193.748 26.4939C193.274 26.3284 192.86 26.0908 192.51 25.7849C192.16 25.4791 191.885 25.1084 191.682 24.6765C191.478 24.2447 191.38 23.7625 191.38 23.2299C191.38 22.6973 191.482 22.215 191.682 21.7832C191.885 21.3513 192.16 20.9807 192.51 20.6748C192.86 20.3689 193.274 20.1314 193.748 19.9658C194.222 19.8003 194.731 19.7175 195.269 19.7175C195.77 19.7175 196.221 19.8003 196.632 19.9658C197.038 20.1314 197.384 20.3689 197.67 20.6748C197.953 20.9843 198.171 21.3513 198.325 21.7832C198.48 22.215 198.555 22.6973 198.555 23.2299V23.8776H193.537C193.624 24.2735 193.812 24.5866 194.098 24.8205C194.388 25.0544 194.742 25.1732 195.163 25.1732C195.517 25.1732 195.818 25.0976 196.063 24.9464C196.308 24.7953 196.522 24.601 196.703 24.3599L198.22 25.4179ZM196.391 22.4705C196.402 22.1215 196.281 21.8228 196.029 21.5745C195.781 21.3262 195.457 21.2038 195.066 21.2038C194.825 21.2038 194.614 21.2398 194.433 21.3154C194.253 21.3873 194.094 21.4845 193.966 21.5961C193.838 21.7112 193.737 21.8444 193.665 21.9955C193.594 22.1467 193.552 22.305 193.541 22.4705H196.391Z" fill="#121212"/>
<path d="M199.142 19.8831H201.303V20.9555H201.333C201.562 20.5416 201.837 20.2321 202.153 20.027C202.47 19.8219 202.869 19.7175 203.35 19.7175C203.475 19.7175 203.599 19.7211 203.723 19.7319C203.847 19.7427 203.964 19.7607 204.069 19.7859V21.6716C203.915 21.6248 203.765 21.5925 203.614 21.5673C203.463 21.5457 203.309 21.5313 203.147 21.5313C202.733 21.5313 202.409 21.5853 202.168 21.6968C201.928 21.8084 201.743 21.9595 201.615 22.1575C201.487 22.3554 201.401 22.5929 201.363 22.8664C201.325 23.1435 201.306 23.4458 201.306 23.7769V26.5731H199.146V19.8831H199.142Z" fill="#121212"/>
<path d="M204.426 17.7741C204.426 17.443 204.551 17.1623 204.795 16.9284C205.04 16.6944 205.334 16.5757 205.68 16.5757C206.026 16.5757 206.32 16.6944 206.565 16.9284C206.809 17.1623 206.933 17.443 206.933 17.7741C206.933 18.1051 206.809 18.3858 206.565 18.6197C206.32 18.8537 206.026 18.9724 205.68 18.9724C205.334 18.9724 205.04 18.8537 204.795 18.6197C204.551 18.3894 204.426 18.1051 204.426 17.7741ZM204.6 19.8829H206.76V26.5765H204.6V19.8829Z" fill="#121212"/>
<path d="M208.777 21.5348H207.35V19.883H208.777V18.699C208.777 18.332 208.811 17.9865 208.879 17.659C208.947 17.3315 209.075 17.0472 209.266 16.7989C209.458 16.5506 209.733 16.3563 210.095 16.2123C210.456 16.0684 210.927 16 211.514 16C211.736 16 211.95 16.0108 212.161 16.0288C212.372 16.0468 212.579 16.0792 212.782 16.126L212.681 17.8749C212.556 17.8281 212.44 17.7958 212.334 17.7706C212.229 17.749 212.109 17.7346 211.973 17.7346C211.627 17.7346 211.367 17.8065 211.194 17.9469C211.021 18.0908 210.934 18.3823 210.934 18.8214V19.883H212.534V21.5348H210.934V26.573H208.773V21.5348H208.777Z" fill="#121212"/>
<path d="M216.524 27.6634C216.381 28.0197 216.242 28.3363 216.106 28.6134C215.971 28.8905 215.801 29.1209 215.594 29.308C215.387 29.4951 215.128 29.6391 214.808 29.7362C214.491 29.8334 214.074 29.8802 213.554 29.8802C212.997 29.8802 212.459 29.7974 211.939 29.6319L212.229 27.9369C212.557 28.0736 212.892 28.142 213.238 28.142C213.479 28.142 213.675 28.1168 213.829 28.0664C213.983 28.0161 214.111 27.9441 214.209 27.8469C214.311 27.7498 214.394 27.6346 214.461 27.4943C214.529 27.3575 214.601 27.1956 214.676 27.012L214.834 26.627L211.766 19.8794H214.1L215.899 24.2986H215.929L217.469 19.8794H219.686L216.524 27.6634Z" fill="#121212"/>
<path d="M220.072 19.8831H222.146V20.7935H222.176C222.244 20.664 222.338 20.538 222.466 20.4085C222.59 20.2789 222.741 20.1638 222.914 20.063C223.087 19.9622 223.283 19.8795 223.505 19.8147C223.727 19.7499 223.964 19.7175 224.224 19.7175C224.713 19.7175 225.146 19.8147 225.526 20.0054C225.906 20.1998 226.192 20.502 226.384 20.9159C226.633 20.4841 226.938 20.1782 227.292 19.9946C227.645 19.8111 228.082 19.7175 228.602 19.7175C229.072 19.7175 229.467 19.7931 229.791 19.9442C230.111 20.0954 230.367 20.3005 230.555 20.5632C230.743 20.8259 230.875 21.1318 230.958 21.4845C231.041 21.8372 231.082 22.215 231.082 22.6217V26.5731H228.922V22.6793C228.922 22.3662 228.85 22.0999 228.714 21.8732C228.575 21.65 228.327 21.5349 227.973 21.5349C227.724 21.5349 227.514 21.5745 227.348 21.6536C227.179 21.7328 227.047 21.8408 226.945 21.9775C226.844 22.1143 226.772 22.2762 226.731 22.4597C226.689 22.6433 226.667 22.8376 226.667 23.0391V26.5767H224.506V23.0391C224.506 22.9204 224.502 22.7728 224.491 22.6001C224.48 22.4274 224.45 22.2618 224.389 22.1035C224.333 21.9487 224.239 21.8156 224.107 21.704C223.979 21.5925 223.787 21.5385 223.539 21.5385C223.26 21.5385 223.034 21.5853 222.861 21.6824C222.688 21.7796 222.556 21.9091 222.466 22.0675C222.375 22.2294 222.315 22.4094 222.285 22.6109C222.255 22.8124 222.244 23.0247 222.244 23.2443V26.5767H220.083V19.8831H220.072Z" fill="#121212"/>
<path d="M236.201 27.6634C236.058 28.0197 235.918 28.3363 235.783 28.6134C235.647 28.8905 235.478 29.1209 235.271 29.308C235.064 29.4951 234.804 29.6391 234.484 29.7362C234.168 29.8334 233.75 29.8802 233.231 29.8802C232.674 29.8802 232.135 29.7974 231.616 29.6319L231.906 27.9369C232.233 28.0736 232.568 28.142 232.915 28.142C233.155 28.142 233.351 28.1168 233.506 28.0664C233.66 28.0161 233.788 27.9441 233.886 27.8469C233.987 27.7498 234.07 27.6346 234.138 27.4943C234.206 27.3575 234.277 27.1956 234.353 27.012L234.511 26.627L231.443 19.8794H233.777L235.576 24.2986H235.606L237.146 19.8794H239.363L236.201 27.6634Z" fill="#121212"/>
</g>
<g opacity="0.3">
<path d="M171.026 18.103C167.862 18.1086 165.306 20.7125 165.312 23.9161C165.312 24.4713 165.394 25.021 165.547 25.554C165.547 25.4818 165.547 25.4152 165.547 25.343C165.547 23.0666 167.364 21.2233 169.609 21.2233C171.853 21.2233 173.67 23.0666 173.67 25.343C173.67 27.6194 171.853 29.4627 169.609 29.4627C169.537 29.4627 169.472 29.4627 169.401 29.4627H169.39C172.411 30.3844 175.602 28.641 176.505 25.5707C177.409 22.5003 175.695 19.269 172.668 18.3529C172.137 18.1919 171.585 18.1086 171.032 18.1086L171.026 18.103Z" fill="#121212"/>
<path d="M171.71 14C166.702 14 162.64 18.1197 162.64 23.1999C162.64 28.2801 166.702 32.3998 171.71 32.3998C176.718 32.3998 180.78 28.2801 180.78 23.1999C180.78 18.1197 176.718 14 171.71 14ZM171.02 30.4343C169.318 30.4399 167.681 29.757 166.483 28.5299L166.461 28.5077C163.959 25.9482 163.976 21.8174 166.494 19.2801C169.017 16.7428 173.089 16.7594 175.591 19.3134C178.092 21.8729 178.076 26.0037 175.558 28.541C174.348 29.7514 172.717 30.4343 171.02 30.4343Z" fill="#121212"/>
</g>
<path d="M106.008 26.1392C105.438 26.1392 104.954 26.0398 104.556 25.8409C104.162 25.642 103.867 25.3852 103.671 25.0703C103.476 24.7521 103.378 24.4157 103.378 24.0611H104.163C104.163 24.3097 104.238 24.5417 104.387 24.7571C104.536 24.9692 104.75 25.1399 105.028 25.2692C105.307 25.3984 105.632 25.4631 106.003 25.4631C106.606 25.4631 107.068 25.352 107.39 25.13C107.715 24.9046 107.877 24.5748 107.877 24.1406C107.877 23.7495 107.718 23.4595 107.4 23.2706C107.082 23.0784 106.631 22.9392 106.048 22.853C105.587 22.7801 105.178 22.6806 104.82 22.5547C104.462 22.4287 104.162 22.2365 103.92 21.978C103.678 21.7195 103.557 21.3797 103.557 20.9588C103.557 20.6108 103.64 20.2976 103.805 20.0192C103.971 19.7375 104.235 19.5121 104.596 19.343C104.96 19.174 105.423 19.0895 105.983 19.0895C106.493 19.0895 106.929 19.1707 107.29 19.3331C107.652 19.4922 107.925 19.7143 108.111 19.9993C108.296 20.2843 108.389 20.6141 108.389 20.9886H107.604C107.604 20.75 107.539 20.5395 107.41 20.3572C107.284 20.175 107.098 20.0341 106.853 19.9347C106.611 19.8352 106.319 19.7855 105.978 19.7855C105.388 19.7855 104.967 19.8965 104.715 20.1186C104.463 20.3374 104.337 20.6174 104.337 20.9588C104.337 21.3168 104.498 21.5902 104.82 21.7791C105.144 21.968 105.633 22.1039 106.286 22.1868C106.979 22.2895 107.549 22.4851 107.996 22.7734C108.444 23.0585 108.668 23.5142 108.668 24.1406C108.668 24.5549 108.562 24.9129 108.349 25.2145C108.137 25.5128 107.831 25.7415 107.43 25.9006C107.032 26.0597 106.558 26.1392 106.008 26.1392ZM114.479 23.3402C114.479 23.3833 114.474 23.4877 114.464 23.6534H110.199C110.229 24.008 110.328 24.3196 110.497 24.5881C110.67 24.8565 110.885 25.0637 111.143 25.2095C111.402 25.3554 111.679 25.4283 111.974 25.4283C112.328 25.4283 112.635 25.3487 112.893 25.1896C113.155 25.0305 113.346 24.8002 113.465 24.4986H114.31C114.211 24.8101 114.049 25.0902 113.823 25.3388C113.598 25.5874 113.326 25.7829 113.008 25.9254C112.693 26.0679 112.353 26.1392 111.989 26.1392C111.518 26.1392 111.087 26.0199 110.696 25.7813C110.305 25.5426 109.997 25.2195 109.771 24.8118C109.546 24.4041 109.433 23.9567 109.433 23.4695C109.433 22.9822 109.546 22.5348 109.771 22.1271C109.997 21.7195 110.305 21.3963 110.696 21.1577C111.087 20.919 111.518 20.7997 111.989 20.7997C112.456 20.7997 112.88 20.9174 113.261 21.1527C113.643 21.3847 113.941 21.6963 114.156 22.0874C114.372 22.4751 114.479 22.8928 114.479 23.3402ZM113.704 22.9773C113.687 22.7188 113.599 22.4785 113.44 22.2564C113.281 22.031 113.072 21.852 112.814 21.7195C112.555 21.5836 112.277 21.5156 111.979 21.5156C111.704 21.5156 111.443 21.5736 111.198 21.6896C110.956 21.8056 110.749 21.9747 110.577 22.1967C110.408 22.4155 110.293 22.6757 110.234 22.9773H113.704ZM117.786 26.1392C117.312 26.1392 116.877 26.0199 116.483 25.7813C116.089 25.5426 115.777 25.2195 115.548 24.8118C115.323 24.4041 115.21 23.9567 115.21 23.4695C115.21 22.9822 115.323 22.5348 115.548 22.1271C115.777 21.7195 116.089 21.3963 116.483 21.1577C116.877 20.919 117.312 20.7997 117.786 20.7997C118.17 20.7997 118.525 20.8743 118.849 21.0234C119.178 21.1726 119.456 21.3797 119.685 21.6449C119.913 21.91 120.081 22.215 120.187 22.5597H119.401C119.265 22.2282 119.053 21.9714 118.765 21.7891C118.477 21.6068 118.15 21.5156 117.786 21.5156C117.474 21.5156 117.179 21.5968 116.901 21.7592C116.622 21.9183 116.397 22.147 116.224 22.4453C116.055 22.7436 115.971 23.085 115.971 23.4695C115.971 23.8572 116.055 24.2003 116.224 24.4986C116.397 24.7969 116.622 25.0272 116.901 25.1896C117.179 25.3487 117.474 25.4283 117.786 25.4283C118.153 25.4283 118.48 25.3355 118.765 25.1499C119.053 24.9643 119.265 24.6974 119.401 24.3494H120.182C120.082 24.7041 119.918 25.0173 119.69 25.2891C119.461 25.5575 119.183 25.7663 118.854 25.9155C118.526 26.0646 118.17 26.1392 117.786 26.1392ZM123.518 26.1392C123.057 26.1392 122.654 26.0514 122.31 25.8757C121.968 25.6967 121.701 25.4216 121.509 25.0504C121.32 24.6759 121.226 24.2069 121.226 23.6435V20.9389H121.982V23.6236C121.982 24.2135 122.112 24.661 122.374 24.9659C122.639 25.2708 123.017 25.4233 123.508 25.4233C123.998 25.4233 124.375 25.2725 124.636 24.9709C124.902 24.666 125.034 24.2169 125.034 23.6236V20.9389H125.79V23.6435C125.79 24.2069 125.694 24.6759 125.501 25.0504C125.309 25.4216 125.042 25.6967 124.701 25.8757C124.363 26.0514 123.969 26.1392 123.518 26.1392ZM127.346 26V20.9389H128.082V22.1321C128.211 21.7609 128.413 21.4692 128.688 21.2571C128.967 21.045 129.293 20.9389 129.668 20.9389H130.145V21.6101H129.707C129.402 21.6101 129.129 21.6896 128.887 21.8487C128.648 22.0078 128.46 22.2398 128.32 22.5447C128.181 22.8464 128.112 23.201 128.112 23.6087V26H127.346ZM135.529 23.3402C135.529 23.3833 135.524 23.4877 135.514 23.6534H131.249C131.278 24.008 131.378 24.3196 131.547 24.5881C131.719 24.8565 131.935 25.0637 132.193 25.2095C132.452 25.3554 132.728 25.4283 133.023 25.4283C133.378 25.4283 133.685 25.3487 133.943 25.1896C134.205 25.0305 134.396 24.8002 134.515 24.4986H135.36C135.261 24.8101 135.098 25.0902 134.873 25.3388C134.647 25.5874 134.376 25.7829 134.058 25.9254C133.743 26.0679 133.403 26.1392 133.038 26.1392C132.568 26.1392 132.137 26.0199 131.746 25.7813C131.355 25.5426 131.046 25.2195 130.821 24.8118C130.596 24.4041 130.483 23.9567 130.483 23.4695C130.483 22.9822 130.596 22.5348 130.821 22.1271C131.046 21.7195 131.355 21.3963 131.746 21.1577C132.137 20.919 132.568 20.7997 133.038 20.7997C133.506 20.7997 133.93 20.9174 134.311 21.1527C134.692 21.3847 134.991 21.6963 135.206 22.0874C135.421 22.4751 135.529 22.8928 135.529 23.3402ZM134.754 22.9773C134.737 22.7188 134.649 22.4785 134.49 22.2564C134.331 22.031 134.122 21.852 133.864 21.7195C133.605 21.5836 133.327 21.5156 133.028 21.5156C132.753 21.5156 132.493 21.5736 132.248 21.6896C132.006 21.8056 131.799 21.9747 131.626 22.1967C131.457 22.4155 131.343 22.6757 131.283 22.9773H134.754ZM138.756 26.1392C138.292 26.1392 137.869 26.0215 137.488 25.7862C137.107 25.5476 136.807 25.2244 136.588 24.8168C136.369 24.4091 136.26 23.96 136.26 23.4695C136.26 22.9789 136.368 22.5298 136.583 22.1222C136.802 21.7145 137.102 21.393 137.483 21.1577C137.864 20.919 138.292 20.7997 138.766 20.7997C139.077 20.7997 139.366 20.8594 139.631 20.9787C139.899 21.098 140.128 21.2538 140.317 21.446C140.509 21.6383 140.656 21.8471 140.759 22.0724L140.744 21.5952V19H141.505V26H140.774V24.8615C140.661 25.1068 140.506 25.3272 140.307 25.5227C140.111 25.715 139.879 25.8658 139.611 25.9751C139.346 26.0845 139.061 26.1392 138.756 26.1392ZM138.88 25.4283C139.221 25.4283 139.535 25.3421 139.82 25.1697C140.108 24.9974 140.335 24.7621 140.501 24.4638C140.666 24.1655 140.749 23.834 140.749 23.4695C140.749 23.1115 140.665 22.7834 140.496 22.4851C140.33 22.1868 140.105 21.9515 139.82 21.7791C139.535 21.6035 139.221 21.5156 138.88 21.5156C138.539 21.5156 138.224 21.6018 137.935 21.7741C137.65 21.9432 137.425 22.1768 137.259 22.4751C137.094 22.7734 137.011 23.1049 137.011 23.4695C137.011 23.834 137.092 24.1655 137.254 24.4638C137.42 24.7621 137.645 24.9974 137.93 25.1697C138.215 25.3421 138.532 25.4283 138.88 25.4283ZM148.48 26.1392C148.046 26.1392 147.647 26.0249 147.282 25.7962C146.917 25.5675 146.644 25.2559 146.462 24.8615V26H145.731V19H146.496V21.3714L146.477 22.0724C146.589 21.8305 146.743 21.6151 146.939 21.4261C147.138 21.2339 147.368 21.0831 147.63 20.9737C147.892 20.861 148.172 20.8047 148.47 20.8047C148.937 20.8047 149.362 20.924 149.743 21.1626C150.127 21.398 150.429 21.7195 150.648 22.1271C150.866 22.5348 150.976 22.9822 150.976 23.4695C150.976 23.96 150.866 24.4091 150.648 24.8168C150.429 25.2244 150.129 25.5476 149.748 25.7862C149.367 26.0215 148.944 26.1392 148.48 26.1392ZM148.356 25.4283C148.694 25.4283 149.005 25.3454 149.29 25.1797C149.576 25.014 149.801 24.782 149.967 24.4837C150.136 24.1854 150.22 23.8473 150.22 23.4695C150.22 23.0982 150.136 22.7652 149.967 22.4702C149.801 22.1719 149.576 21.9382 149.29 21.7692C149.005 21.6001 148.692 21.5156 148.351 21.5156C148.013 21.5156 147.701 21.6035 147.416 21.7791C147.131 21.9515 146.904 22.1868 146.735 22.4851C146.569 22.7834 146.486 23.1115 146.486 23.4695C146.486 23.8374 146.569 24.1705 146.735 24.4688C146.904 24.767 147.131 25.0024 147.416 25.1747C147.705 25.3438 148.018 25.4283 148.356 25.4283ZM151.592 27.7301V27.0838H152.433C152.635 27.0838 152.8 27.0457 152.93 26.9695C153.059 26.8932 153.167 26.7805 153.253 26.6314C153.342 26.4856 153.44 26.2784 153.546 26.0099L153.591 25.8757L151.567 20.9439H152.373L153.879 24.6626L153.994 25.0852L154.123 24.6676L155.614 20.9439L156.425 20.9389L154.421 25.8558C154.216 26.3596 154.032 26.7391 153.869 26.9943C153.707 27.2528 153.515 27.4401 153.293 27.5561C153.071 27.6721 152.779 27.7301 152.418 27.7301H151.592Z" fill="#B9B9B9"/>
<path opacity="0.25" d="M95.4727 21.2857H94.5313V19.5714C94.5313 18.8894 94.2337 18.2354 93.7041 17.7532C93.1744 17.2709 92.4561 17 91.7071 17C90.958 17 90.2397 17.2709 89.71 17.7532C89.1804 18.2354 88.8828 18.8894 88.8828 19.5714V21.2857H87.9414C87.6917 21.2857 87.4523 21.376 87.2757 21.5368C87.0992 21.6975 87 21.9155 87 22.1429V26.4286C87 26.6559 87.0992 26.8739 87.2757 27.0347C87.4523 27.1954 87.6917 27.2857 87.9414 27.2857H95.4727C95.7224 27.2857 95.9618 27.1954 96.1384 27.0347C96.3149 26.8739 96.4141 26.6559 96.4141 26.4286V22.1429C96.4141 21.9155 96.3149 21.6975 96.1384 21.5368C95.9618 21.376 95.7224 21.2857 95.4727 21.2857ZM92.6485 21.2857H90.7656V19.5714C90.7656 19.3441 90.8648 19.1261 91.0414 18.9653C91.2179 18.8046 91.4574 18.7143 91.7071 18.7143C91.9567 18.7143 92.1962 18.8046 92.3727 18.9653C92.5493 19.1261 92.6485 19.3441 92.6485 19.5714V21.2857Z" fill="#121212"/>
<line opacity="0.15" y1="0.5" x2="325" y2="0.5" stroke="#121212"/>
</svg>
