<svg width="80" height="80" viewBox="0 0 80 80" fill="none" xmlns="http://www.w3.org/2000/svg">
<g filter="url(#filter0_d_12_252)">
<circle cx="40" cy="35" r="25" fill="white"/>
</g>
<path fill-rule="evenodd" clip-rule="evenodd" d="M65 35C65 21.1929 53.8071 10 40 10V14C51.598 14 61 23.402 61 35H65Z" fill="#FBC81D"/>
<path d="M33.3086 41.29C32.5 41.29 31.75 41.1465 31.0586 40.8594C30.373 40.5723 29.8047 40.1094 29.3535 39.4707C28.9082 38.8262 28.6621 38 28.6152 36.9922H31.3135C31.3604 37.3906 31.4834 37.7246 31.6826 37.9941C31.8818 38.2578 32.1221 38.4541 32.4033 38.583C32.6904 38.7061 32.9922 38.7676 33.3086 38.7676C33.6777 38.7676 33.9971 38.6914 34.2666 38.5391C34.5361 38.3867 34.7412 38.1787 34.8818 37.915C35.0225 37.6514 35.0928 37.3584 35.0928 37.0361C35.0928 36.4912 34.9082 36.0898 34.5391 35.832C34.1699 35.5742 33.6396 35.4453 32.9482 35.4453L30.5225 35.4277L29.3799 34.4873L30.1621 29.0381H37.0439V31.2881H32.5088L32.21 33.4854H33.7041C34.5654 33.4854 35.3066 33.626 35.9277 33.9072C36.5547 34.1885 37.0352 34.5986 37.3691 35.1377C37.7031 35.6709 37.8701 36.3096 37.8701 37.0537C37.8701 37.7979 37.6826 38.4951 37.3076 39.1455C36.9326 39.79 36.3994 40.3086 35.708 40.7012C35.0166 41.0938 34.2168 41.29 33.3086 41.29Z" fill="black"/>
<path d="M39.8682 42.4219H38.7197L43.2109 31.2451H44.3457L39.8682 42.4219ZM48.4814 41.1914C47.9847 41.1914 47.5039 41.1003 47.0391 40.918C46.5742 40.7311 46.1709 40.4281 45.8291 40.0088C45.4919 39.5895 45.2799 39.0472 45.1934 38.3818H46.2461C46.3327 38.8102 46.4967 39.1611 46.7383 39.4346C46.9844 39.7035 47.2601 39.8994 47.5654 40.0225C47.8753 40.141 48.1807 40.2002 48.4814 40.2002C48.8825 40.2002 49.2516 40.1045 49.5889 39.9131C49.9261 39.7217 50.1927 39.4596 50.3887 39.127C50.5846 38.7943 50.6826 38.4251 50.6826 38.0195C50.6826 37.6048 50.5801 37.2448 50.375 36.9395C50.1699 36.6341 49.876 36.4017 49.4932 36.2422C49.1149 36.0781 48.6729 35.9961 48.167 35.9961L46.3008 35.9893L45.7744 35.5791L46.2939 31.6963H51.127V32.5986H47.2031L46.8682 35.1963H48.4199C49.099 35.1963 49.6891 35.3125 50.1904 35.5449C50.6963 35.7773 51.0837 36.1077 51.3525 36.5361C51.6214 36.96 51.7559 37.4567 51.7559 38.0264C51.7559 38.5915 51.6169 39.1178 51.3389 39.6055C51.0654 40.0885 50.6781 40.4736 50.1768 40.7607C49.68 41.0479 49.1149 41.1914 48.4814 41.1914Z" fill="black"/>
<defs>
<filter id="filter0_d_12_252" x="0" y="0" width="80" height="80" filterUnits="userSpaceOnUse" color-interpolation-filters="sRGB">
<feFlood flood-opacity="0" result="BackgroundImageFix"/>
<feColorMatrix in="SourceAlpha" type="matrix" values="0 0 0 0 0 0 0 0 0 0 0 0 0 0 0 0 0 0 127 0" result="hardAlpha"/>
<feOffset dy="5"/>
<feGaussianBlur stdDeviation="7.5"/>
<feColorMatrix type="matrix" values="0 0 0 0 0 0 0 0 0 0 0 0 0 0 0 0 0 0 0.25 0"/>
<feBlend mode="normal" in2="BackgroundImageFix" result="effect1_dropShadow_12_252"/>
<feBlend mode="normal" in="SourceGraphic" in2="effect1_dropShadow_12_252" result="shape"/>
</filter>
</defs>
</svg>
